<?xml version="1.0" encoding="utf-8"?>
<!-- Generator: Adobe Illustrator 25.4.1, SVG Export Plug-In . SVG Version: 6.00 Build 0)  -->
<svg version="1.1" id="Capa_1" xmlns="http://www.w3.org/2000/svg" xmlns:xlink="http://www.w3.org/1999/xlink" x="0px" y="0px"
	 viewBox="0 0 511.81 447.38" style="enable-background:new 0 0 511.81 447.38;" xml:space="preserve">
<style type="text/css">
	.st0{fill:#020202;}
</style>
<path class="st0" d="M0,153.96c1.84-1.74,1.53-4.19,2.01-6.34c6.66-30.08,31.89-50.39,61.91-48.46
	c24.6,1.58,42.96,14.66,55.18,35.47c15.84,26.98,17.69,54.94,0.39,82.04c-17.1,26.78-52.29,34.08-79.69,17.75
	c-21.47-12.8-33.78-31.81-38.69-56c-0.18-0.9,0.21-2.08-1.11-2.47C0,168.63,0,161.29,0,153.96z M101.16,174.02
	c-0.58-15.18-7.97-30.59-24.68-40.58c-16.4-9.81-35.45-3.3-43.05,14.35c-9,20.89,1.01,49.71,21.04,60.63
	c13.25,7.22,27.08,5.81,36.66-4.14C98.15,197,100.99,187.92,101.16,174.02z"/>
<path class="st0" d="M511.81,242.93c-1.73,1.98-1.44,4.58-1.98,6.89c-7.34,31.51-33.87,56.34-65.22,60.92
	c-34.15,4.98-65.08-20.01-67.71-54.72c-2.84-37.48,21.78-72.61,57.85-82.55c35.77-9.87,68.78,10.56,76.01,47.03
	c0.17,0.88-0.34,2.08,1.05,2.45C511.81,229.6,511.81,236.27,511.81,242.93z M406.7,248.94c-0.62,22.44,17.38,36.76,39.03,31.05
	c20.81-5.49,37.24-28.03,36.06-49.46c-1.12-20.32-17.1-32.76-36.91-28.72C423.9,206.08,407.32,226.54,406.7,248.94z"/>
<path class="st0" d="M64.5,368.7c-0.05-15.01,3.7-29.03,11.75-41.67c19.38-30.43,38.12-61.31,58.66-90.94
	c26.49-38.2,64.21-56.46,110.49-53.71c41.61,2.47,74.21,22.57,97.14,57.47c18.53,28.21,36.68,56.66,54.65,85.23
	c29.71,47.24,5.7,107.31-47.87,120.01c-15.42,3.66-30.8,3.09-45.56-2.97c-23.67-9.72-47.98-15.54-73.78-14.26
	c-19.68,0.97-38.32,5.95-56.47,13.33c-45.28,18.41-94.88-6.82-106.82-54.21C65.18,380.97,64.7,374.86,64.5,368.7z M237.83,211.86
	c-31.19,0.82-57.52,12.43-75.86,38.11c-21.53,30.16-40.77,61.89-60.29,93.39c-10.56,17.05-10.08,35.02,1,51.78
	c13.88,21.01,37.4,27.51,61.5,17.51c17.79-7.39,36.2-12.19,55.32-14.04c31.05-3,61.03,1.64,89.81,13.61
	c10.25,4.26,20.67,6.28,31.63,4.07c32.33-6.52,51.19-44.07,30.58-75.84c-18-27.75-35.61-55.75-53.61-83.49
	C299.16,228.06,272.35,213.2,237.83,211.86z"/>
<path class="st0" d="M124.4,84.23c0.66-24.97,9-47.55,28.16-65.23c29.82-27.51,72.27-24.83,99.93,5.95
	c29.88,33.25,29.42,89.84-0.99,122.52c-32.37,34.78-83.89,30.79-110.74-8.51C129.62,122.66,124.48,104.59,124.4,84.23z
	 M154.71,81.15c-0.82,16.41,3.07,30.51,12.33,43.05c16.93,22.92,48.97,22.6,65.44-0.65c16.3-23.01,16.54-53.25-0.29-75.9
	c-15.6-21-42-24.09-60.89-5.03C160.48,53.53,155.55,66.95,154.71,81.15z"/>
<path class="st0" d="M424.22,112.41c-1.39,29.81-12.89,54.41-38.16,71.31c-34.66,23.18-76.92,11.2-94.75-26.47
	c-19.16-40.47,1.17-94.14,42.21-111.44c34.75-14.65,72.25,1.73,85.41,37.26C422.43,92.52,424.27,102.24,424.22,112.41z
	 M394.13,112.7c0.19-6.64-1.09-12.98-3.32-19.11c-7.38-20.25-28.1-28.6-47.48-19.21c-23.27,11.28-35.7,43.85-25.9,67.88
	c8.82,21.62,29.38,29.4,49.65,17.97C385.34,149.93,392.77,132.89,394.13,112.7z"/>
</svg>
