<svg id="Capa_1" data-name="Capa 1" xmlns="http://www.w3.org/2000/svg" viewBox="0 0 408.9 374.57"><title>truck</title><path d="M13.43,170.07c1.26-4.58,2.11-9.32,3.85-13.71,9-22.6,32-32.25,54.7-22.54C95.69,144,108.77,163,114.71,187.41a58.79,58.79,0,0,1-1.88,34.88c-8.52,23-32.31,33.24-55.4,23.27s-36.06-28.76-42.3-52.62c-.67-2.54-1.14-5.13-1.7-7.7Zm16.07,7.81a61.22,61.22,0,0,0,6.28,25c6.66,13.25,16.08,23.64,30.5,28.65,14.14,4.91,27.81-2.26,31.88-16.62s1.38-28.14-5.62-41c-6.38-11.76-15.26-21-28.2-25.67C52.47,144,41.82,147,35.14,156.82,30.79,163.19,29.83,170.57,29.5,177.88Z" transform="translate(-13.43 -17.06)"/><path d="M89.19,320.34c.29-17.75,6.69-34.25,20.32-47.46A202.31,202.31,0,0,0,151.87,213c4.93-10.47,9.91-20.92,18.71-28.89,20.47-18.55,44-23.77,70.15-15.05,18,6,30.59,18.37,39.19,35.28,6.66,13.11,13.65,26.1,21.31,38.64s18.74,22.66,28.82,33.44c22.12,23.62,22.76,63,2.09,87.86C316.5,383.1,296.22,392.2,272,391.6c-8.64-.21-17.22-2.8-25.81-4.39a158,158,0,0,0-65.58,2c-27.38,6.44-51.7-.11-71.87-19.88C95.52,356.3,89.46,340,89.19,320.34Zm185,56.06a67.8,67.8,0,0,0,31.52-9.89c29.39-18,34.06-60.14,9-83a186.29,186.29,0,0,1-26-30.07c-9.93-13.92-17.13-29.3-24.68-44.53-11.21-22.59-39.61-33.47-63.27-24.83-15,5.48-25.12,15.85-31.56,30.23a228.72,228.72,0,0,1-49.42,71.26c-18.12,17.62-19.44,48.27-3.42,67.79s37.16,25.71,61.51,19.88A166.5,166.5,0,0,1,249,371.31C257.38,372.94,265.79,374.7,274.21,376.4Z" transform="translate(-13.43 -17.06)"/><path d="M234.48,87.8c.36-21.31,6.23-40.67,21.14-56.42,20.16-21.29,47.13-18.38,62.63,6.46,17.7,28.37,12.19,74.3-11.71,97.63-21.2,20.69-48.87,16.44-63-9.72A77.08,77.08,0,0,1,234.48,87.8Zm77.94-10.18c-.16-11.58-2.3-22.7-8.84-32.52-4.78-7.17-10.82-12.56-20.29-11.57-6.58.68-11.55,4.45-15.92,9-9,9.46-13.78,21-15.75,33.73-2.48,15.94-.67,31.26,8.37,45.11,7,10.79,18.24,14.35,27.63,8.22a48.84,48.84,0,0,0,12.11-11.32C308.7,106.36,312.41,92.51,312.42,77.62Z" transform="translate(-13.43 -17.06)"/><path d="M201.46,85.88c-.36,19.89-4.36,36.55-16.79,50.15-13.82,15.13-33.4,16.58-49.73,4-14.76-11.39-22.41-26.9-26-44.79-3.78-19-2.18-37.36,7-54.59,6.41-12.09,15.65-21.18,30-23.21,13.23-1.87,23.91,3.55,33,12.51C191,41.85,197.41,56.7,200.17,73.2,201,78,201.17,83,201.46,85.88Zm-16.12-3.09c-1-4.28-2.37-12.67-5-20.67a48.44,48.44,0,0,0-17.18-24.36c-8.68-6.49-18.9-6.21-26.21,1.7a48.33,48.33,0,0,0-9.21,14.19c-5.14,12.61-5.61,25.86-2.83,39.14s8.27,25.28,19.15,34,23.18,6.77,31.3-4.72C182.86,111.5,185,99.53,185.34,82.79Z" transform="translate(-13.43 -17.06)"/><path d="M422.34,181.65c-2.42,26.26-14.75,50.27-43,63.34-27.16,12.56-54.67-3-59.21-32.61s11.94-62.4,38.5-76.31c17.68-9.25,37-7.41,49.59,4.88C418.57,151.07,422.16,163.82,422.34,181.65Zm-16-5c-.25-2.07-.46-4.32-.8-6.54-3-19.33-17.92-28.06-36.08-21.15-9,3.44-15.9,9.64-21.38,17.28-10.5,14.64-15.53,30.65-10.53,48.71,2.86,10.3,10.11,16.71,20.53,17.88,7.88.89,15-1.7,21.35-6.07C396.78,214.78,405.08,197.71,406.32,176.7Z" transform="translate(-13.43 -17.06)"/><path d="M293.58,305.36c-2.87-1.77-5.46-2.61-6.92-4.39-9.52-11.58-18.92-23.27-28.07-35.15a7.93,7.93,0,0,1,1.73-11.62c3.61-2.48,8.45-1.35,11.57,2.57q13.5,17,27.07,33.91c2.29,2.86,3.21,6.16,1.18,9.18C298.69,302,296,303.39,293.58,305.36Z" transform="translate(-13.43 -17.06)"/><path d="M249.78,240.56a7.89,7.89,0,0,1-8-7.71,8,8,0,1,1,15.92,0A7.91,7.91,0,0,1,249.78,240.56Z" transform="translate(-13.43 -17.06)"/></svg>